<svg id="Layer_1" data-name="Layer 1" xmlns="http://www.w3.org/2000/svg" xmlns:xlink="http://www.w3.org/1999/xlink" viewBox="0 0 59.6 55.27"><defs><style>.cls-1{fill:none;}.cls-2{clip-path:url(#clip-path);}.cls-3{fill:#3566e7;}.cls-4{fill:#22cefa;}</style><clipPath id="clip-path"><path class="cls-1" d="M40.71-26.86c.1-.25.18-.5.26-.75l.15-.5c.07-.29.13-.58.19-.87s.06-.27.08-.41a12.18,12.18,0,0,0,.14-1.34h0v-.19c0-.34,0-.69,0-1s0-.42-.06-.63l-.06-.58c0-.24-.09-.47-.14-.7s-.06-.34-.1-.5S41-34.81,41-35s-.1-.35-.16-.52-.15-.39-.23-.58-.15-.38-.24-.56-.17-.33-.25-.49-.21-.4-.33-.6-.19-.29-.28-.43-.26-.4-.4-.59-.25-.3-.37-.45a4.83,4.83,0,0,0-.41-.49,10.18,10.18,0,0,0-.73-.74,1.59,1.59,0,0,0-.13-.13h0c-.31-.28-.64-.54-1-.79l-.33-.23c-.23-.16-.46-.32-.7-.46a4.59,4.59,0,0,0-.49-.26l-.59-.32c-.19-.09-.38-.16-.57-.24s-.37-.16-.57-.23-.43-.14-.65-.2l-.52-.16c-.28-.07-.56-.12-.84-.17l-.37-.07c-.42-.06-.83-.1-1.25-.12h-.18c-.35,0-.7,0-1.05,0s-.42,0-.63.06l-.59.06-.7.14-.5.1-.66.19-.52.17-.57.23c-.19.08-.38.15-.57.24l-.48.25c-.2.11-.41.21-.61.33l-.42.28c-.2.13-.4.26-.59.4l-.46.37-.49.4q-.39.36-.75.75l-.12.12h0a12.49,12.49,0,0,0-.8,1l-.22.32c-.16.23-.32.46-.47.71s-.17.32-.26.48-.22.39-.31.6-.16.38-.24.57-.17.37-.24.56-.13.44-.19.65a5.34,5.34,0,0,0-.16.53c-.07.28-.12.55-.17.83s-.06.25-.07.38a10.38,10.38,0,0,0-.13,1.25h0a1,1,0,0,1,0,.17c0,.35,0,.7,0,1.05s0,.42.06.63,0,.39.06.59.08.46.13.7.06.33.11.5.12.44.19.66.1.34.16.52.15.38.23.57.16.38.25.57.16.32.25.48.21.41.33.6a4,4,0,0,0,.28.43c.13.2.25.4.4.59s.24.31.36.46.26.33.41.49a10.33,10.33,0,0,0,.74.74l.12.13h0l.11.09a8.81,8.81,0,0,0,.75.62l.3.22.63.42.34.21c.22.13.45.25.68.37l.31.15c.32.15.65.29,1,.41l.05,0q.54.18,1.08.33l.31.07c.28.07.56.12.84.17l.32.05.23,0h.06c.28,0,.57.07.86.09a12.69,12.69,0,0,0,5.3-.91h0l.14-.07c.35-.15.7-.31,1-.49l.15-.09.71-.41,0,0a12.75,12.75,0,0,0,2.47-2.08A12.43,12.43,0,0,0,40-25.34l0,0c.05-.1.09-.19.13-.29s.23-.45.33-.68S40.65-26.69,40.71-26.86Z"/></clipPath></defs><title>icons_layout</title><g class="cls-2"><path class="cls-3" d="M11-.36C11,.51,10.5,1,9.49,1H2.41C1.39,1,.88.51.88-.36s.51-1.28,1.53-1.28H4.34v-8.47L2.51-9a1.21,1.21,0,0,1-.62.19A1.12,1.12,0,0,1,1-9.26a1.48,1.48,0,0,1-.36-1,1.2,1.2,0,0,1,.64-1.1l3.27-2A2.83,2.83,0,0,1,6-13.73a1.51,1.51,0,0,1,1.12.43,1.51,1.51,0,0,1,.43,1.14V-1.64H9.49C10.5-1.64,11-1.21,11-.36Z"/><path class="cls-4" d="M13.6-.79a9.4,9.4,0,0,1-1.4-5.57,9.4,9.4,0,0,1,1.4-5.55,4.7,4.7,0,0,1,4-1.92,4.69,4.69,0,0,1,4,1.92,9.4,9.4,0,0,1,1.4,5.55,9.4,9.4,0,0,1-1.4,5.57,4.69,4.69,0,0,1-4,1.92A4.7,4.7,0,0,1,13.6-.79Zm5.79-1.74a9.76,9.76,0,0,0,.55-3.83,9.66,9.66,0,0,0-.55-3.83,1.8,1.8,0,0,0-1.74-1.18,1.82,1.82,0,0,0-1.75,1.19,9.67,9.67,0,0,0-.55,3.82,9.76,9.76,0,0,0,.55,3.83,1.81,1.81,0,0,0,1.75,1.2A1.81,1.81,0,0,0,19.39-2.53Z"/><path class="cls-3" d="M35.84-.36c0,.87-.5,1.31-1.51,1.31H27.25c-1,0-1.53-.44-1.53-1.31s.51-1.28,1.53-1.28h1.92v-8.47L27.35-9a1.21,1.21,0,0,1-.62.19,1.12,1.12,0,0,1-.88-.44,1.48,1.48,0,0,1-.36-1,1.2,1.2,0,0,1,.64-1.1l3.27-2a2.83,2.83,0,0,1,1.45-.44A1.51,1.51,0,0,1,32-13.3a1.51,1.51,0,0,1,.43,1.14V-1.64h1.93C35.34-1.64,35.84-1.21,35.84-.36Z"/></g><path class="cls-3" d="M20.2,37.56a1.41,1.41,0,0,1-1.41-1.4v-5a1.41,1.41,0,0,1,2.82,0v5A1.41,1.41,0,0,1,20.2,37.56Z"/><path class="cls-3" d="M20.2,22.7a2.39,2.39,0,1,1,2.39-2.39A2.4,2.4,0,0,1,20.2,22.7Z"/><path class="cls-3" d="M11.49,45.9a8.18,8.18,0,0,1-1.44-.14,6.63,6.63,0,0,1-1.24-.35,5.26,5.26,0,0,1-1.05-.56,4.59,4.59,0,0,1-.89-.76,5.19,5.19,0,0,1-.71-1A6.45,6.45,0,0,1,5.65,42a7.86,7.86,0,0,1-.31-1.37A11.2,11.2,0,0,1,5.23,39V31a4.93,4.93,0,0,0-.06-.78A3.47,3.47,0,0,0,5,29.5a2.91,2.91,0,0,0-.31-.64,3.72,3.72,0,0,0-.42-.56A3.88,3.88,0,0,0,3,27.53a5.42,5.42,0,0,0-.72-.19,5.63,5.63,0,0,0-.75-.07H1.46a1.23,1.23,0,0,1,0-2.46h.17a4.54,4.54,0,0,0,.65,0A4,4,0,0,0,3,24.62a3.44,3.44,0,0,0,.65-.28,3.35,3.35,0,0,0,.57-.42,3,3,0,0,0,.46-.55A3.44,3.44,0,0,0,5,22.73,3.89,3.89,0,0,0,5.17,22a4.72,4.72,0,0,0,.06-.77v-8a11.16,11.16,0,0,1,.11-1.57,7.84,7.84,0,0,1,.31-1.35A6.37,6.37,0,0,1,6.15,9.2a5.39,5.39,0,0,1,.7-.93,4.68,4.68,0,0,1,.88-.73,4.78,4.78,0,0,1,1-.51A6.51,6.51,0,0,1,10,6.74a8.51,8.51,0,0,1,1.16-.07h.39a1.23,1.23,0,0,1-.07,2.46l-.13,0h-.12a4.85,4.85,0,0,0-.58,0,3.76,3.76,0,0,0-.77.17,3.27,3.27,0,0,0-.69.3,3,3,0,0,0-.6.46,3.29,3.29,0,0,0-.48.57,3.83,3.83,0,0,0-.34.67,3.69,3.69,0,0,0-.2.76,5.49,5.49,0,0,0-.06.83v8.44a8.74,8.74,0,0,1-.1,1.39,6.17,6.17,0,0,1-.28,1.18,5,5,0,0,1-.45,1,4.65,4.65,0,0,1-.63.83l-.43.45.41.46a5.23,5.23,0,0,1,.64.9,6.05,6.05,0,0,1,.46,1.07,6.92,6.92,0,0,1,.28,1.25,9.35,9.35,0,0,1,.1,1.43V39.5a5.71,5.71,0,0,0,.07.84,3.69,3.69,0,0,0,.2.76,3.17,3.17,0,0,0,.34.69,3,3,0,0,0,.48.58,3.19,3.19,0,0,0,.57.46,3.73,3.73,0,0,0,.69.35,4.58,4.58,0,0,0,.77.21,5.17,5.17,0,0,0,.71.07h.06l.11,0a1.23,1.23,0,0,1,0,2.46Z"/><path class="cls-3" d="M33.11,33.58l-.22-2.3A10.86,10.86,0,0,1,33,29.85a9.17,9.17,0,0,1,.28-1.25,5.67,5.67,0,0,1,.47-1.06,5,5,0,0,1,.64-.91l.41-.46-.43-.45a4.65,4.65,0,0,1-.63-.83,5,5,0,0,1-.46-1A8.15,8.15,0,0,1,33,22.72a10.15,10.15,0,0,1-.09-1.39V12.89a5.49,5.49,0,0,0-.06-.83,5.62,5.62,0,0,0-.2-.76,3.87,3.87,0,0,0-.35-.67,2.85,2.85,0,0,0-.47-.57,3,3,0,0,0-.6-.46,3.36,3.36,0,0,0-.7-.3,3.52,3.52,0,0,0-.76-.17c-.2,0-.42,0-.64,0h-.05l-.12,0a1.23,1.23,0,1,1,0-2.45h.33a8.36,8.36,0,0,1,1.15.07A6.62,6.62,0,0,1,31.63,7a4.78,4.78,0,0,1,1,.51,4.32,4.32,0,0,1,.87.73,4.54,4.54,0,0,1,.7.93,5.19,5.19,0,0,1,.51,1.12,7.62,7.62,0,0,1,.32,1.35,11.2,11.2,0,0,1,.1,1.57v8a4.72,4.72,0,0,0,.06.77,3.88,3.88,0,0,0,.18.71,3.48,3.48,0,0,0,.32.64,2.93,2.93,0,0,0,.45.54,3.28,3.28,0,0,0,.57.43,3.75,3.75,0,0,0,.65.28,4.1,4.1,0,0,0,.73.17,4.45,4.45,0,0,0,.65,0h.16a1.23,1.23,0,0,1,0,2.46h-.08a5.63,5.63,0,0,0-.76.07,5,5,0,0,0-.72.19,3.82,3.82,0,0,0-.64.32,3,3,0,0,0-1,1,3.44,3.44,0,0,0-.31.64,4.21,4.21,0,0,0-.18.72,4.93,4.93,0,0,0-.06.78l.23,2.1"/><path class="cls-1" d="M34.43,54.88h0A2.45,2.45,0,0,1,32,52.78l-.08-.57a1.38,1.38,0,0,0-2.2-.91l-.45.34a2.45,2.45,0,0,1-3.21-.22h0a2.45,2.45,0,0,1-.23-3.21l.34-.46a1.37,1.37,0,0,0-.91-2.19l-.56-.09A2.45,2.45,0,0,1,22.59,43h0a2.46,2.46,0,0,1,2.11-2.43l.56-.08a1.38,1.38,0,0,0,.91-2.19l-.34-.46a2.45,2.45,0,0,1,.23-3.21h0a2.46,2.46,0,0,1,3.21-.23l.45.35a1.38,1.38,0,0,0,2.2-.91l.08-.57a2.46,2.46,0,0,1,2.43-2.11h0a2.46,2.46,0,0,1,2.43,2.11l.08.57a1.38,1.38,0,0,0,2.19.91l.46-.35a2.46,2.46,0,0,1,3.21.23h0A2.45,2.45,0,0,1,43,37.88l-.34.46a1.38,1.38,0,0,0,.9,2.19l.57.08A2.46,2.46,0,0,1,46.27,43h0a2.45,2.45,0,0,1-2.11,2.43l-.57.09a1.38,1.38,0,0,0-.9,2.19l.34.46a2.45,2.45,0,0,1-.23,3.21h0a2.45,2.45,0,0,1-3.21.22l-.46-.34a1.38,1.38,0,0,0-2.19.91l-.08.57A2.45,2.45,0,0,1,34.43,54.88Z"/><path class="cls-4" d="M34.43,33.36a.3.3,0,0,1,.3.26l.08.56a3.53,3.53,0,0,0,5.62,2.33l.45-.34a.27.27,0,0,1,.18-.07.31.31,0,0,1,.25.49l-.35.46a3.53,3.53,0,0,0,2.33,5.61l.57.08a.31.31,0,0,1,.26.3.3.3,0,0,1-.26.3l-.57.08A3.54,3.54,0,0,0,41,49l.35.46a.3.3,0,0,1,0,.39.28.28,0,0,1-.22.09.32.32,0,0,1-.18-.06l-.45-.34a3.47,3.47,0,0,0-2.12-.71,3.55,3.55,0,0,0-3.5,3l-.08.57a.3.3,0,0,1-.6,0l-.08-.57a3.55,3.55,0,0,0-3.5-3,3.47,3.47,0,0,0-2.12.71l-.46.34a.28.28,0,0,1-.18.06.27.27,0,0,1-.21-.09.29.29,0,0,1,0-.39L27.9,49a3.54,3.54,0,0,0-2.33-5.62L25,43.34a.3.3,0,0,1-.26-.3.31.31,0,0,1,.26-.3l.57-.08a3.53,3.53,0,0,0,2.33-5.61l-.35-.46a.31.31,0,0,1,0-.4.31.31,0,0,1,.21-.09.28.28,0,0,1,.18.06l.46.35a3.53,3.53,0,0,0,5.62-2.33l.08-.56a.3.3,0,0,1,.3-.26m0-2.16h0A2.46,2.46,0,0,0,32,33.31l-.08.57a1.39,1.39,0,0,1-2.2.91l-.45-.35A2.46,2.46,0,0,0,27.79,34a2.41,2.41,0,0,0-1.73.72h0a2.45,2.45,0,0,0-.23,3.21l.34.46a1.38,1.38,0,0,1-.91,2.19l-.56.08A2.46,2.46,0,0,0,22.59,43h0a2.45,2.45,0,0,0,2.11,2.43l.56.09a1.37,1.37,0,0,1,.91,2.19l-.34.46a2.45,2.45,0,0,0,3.44,3.43l.45-.34a1.41,1.41,0,0,1,.83-.28,1.38,1.38,0,0,1,1.37,1.19l.08.57a2.45,2.45,0,0,0,2.43,2.1h0a2.45,2.45,0,0,0,2.43-2.1l.08-.57A1.37,1.37,0,0,1,38.31,51a1.36,1.36,0,0,1,.82.28l.46.34a2.44,2.44,0,0,0,3.21-.22h0A2.45,2.45,0,0,0,43,48.21l-.34-.46a1.38,1.38,0,0,1,.9-2.19l.57-.09A2.45,2.45,0,0,0,46.27,43h0a2.46,2.46,0,0,0-2.11-2.43l-.57-.08a1.38,1.38,0,0,1-.9-2.19l.34-.46a2.45,2.45,0,0,0-.23-3.21h0A2.42,2.42,0,0,0,41.06,34a2.45,2.45,0,0,0-1.47.49l-.46.35a1.34,1.34,0,0,1-.82.27,1.37,1.37,0,0,1-1.37-1.18l-.08-.57a2.46,2.46,0,0,0-2.43-2.11Z"/><path class="cls-4" d="M34.43,46.51A3.47,3.47,0,1,1,37.9,43,3.47,3.47,0,0,1,34.43,46.51Zm0-4.78A1.32,1.32,0,1,0,35.74,43,1.32,1.32,0,0,0,34.43,41.73Z"/></svg>