<svg id="Layer_1" data-name="Layer 1" xmlns="http://www.w3.org/2000/svg" viewBox="0 0 59.6 55.27"><defs><style>.cls-1{fill:#3566e7;}.cls-2{fill:#22cefa;}</style></defs><title>icons_layout</title><circle class="cls-1" cx="27.63" cy="28.85" r="5.15"/><path class="cls-1" d="M27.61,40.18a11.27,11.27,0,0,1-8-3.33.86.86,0,0,1,0-1.23.87.87,0,0,1,1.23,0,9.64,9.64,0,1,0,0-13.64.85.85,0,0,1-1.23,0,.87.87,0,0,1,0-1.23,11.38,11.38,0,1,1,8.05,19.43Z"/><path class="cls-2" d="M50.61,27.74a4,4,0,0,0-2.85-3.66L47.55,24a3.58,3.58,0,0,1-1.86-1,5.08,5.08,0,0,1-1.25-3.14,3.85,3.85,0,0,1,.5-1.6,4.81,4.81,0,0,0,.65-2.74c-.16-1.34-1.08-2.64-2.75-3.87a4.14,4.14,0,0,0-5.09,0c-1,.6-1.84.54-3.28-.21A3.87,3.87,0,0,1,32.24,9a4.19,4.19,0,0,0-3.43-3.07c-2.87-.41-5,.71-5.78,3.07a4.8,4.8,0,0,1-2.88,2.74,3.05,3.05,0,0,1-2.63-.16,4.15,4.15,0,0,0-5.1,0c-1.66,1.23-2.58,2.53-2.74,3.86a4.82,4.82,0,0,0,.65,2.75,3.85,3.85,0,0,1,.5,1.6,4.12,4.12,0,0,1-.84,2.6.86.86,0,0,0,.77,1.27.8.8,0,0,0,.83-.55,6.54,6.54,0,0,0,1-3.32,5.27,5.27,0,0,0-.67-2.34,3.43,3.43,0,0,1-.49-1.8A4.44,4.44,0,0,1,13.46,13c1-.78,1.86-.77,3.13,0a4.71,4.71,0,0,0,4.15.33,6.55,6.55,0,0,0,3.94-3.83c.66-1.94,2.48-2.1,3.88-1.9a2.48,2.48,0,0,1,2,1.9,5.65,5.65,0,0,0,3.08,3.35c1.41.74,3.12,1.34,5,.15,1.27-.8,2.09-.81,3.14,0a4.47,4.47,0,0,1,2,2.66,3.4,3.4,0,0,1-.49,1.8,5.27,5.27,0,0,0-.68,2.34,6.77,6.77,0,0,0,1.68,4.28A5.21,5.21,0,0,0,47,25.66l.21.07a2.27,2.27,0,0,1,1.66,2.14c.12,1.46.11,2.91-.74,3.63A3.09,3.09,0,0,1,47,32a6.53,6.53,0,0,0-1.12.39,6.39,6.39,0,0,0-3.1,4.7A4.76,4.76,0,0,0,43.34,40a5.36,5.36,0,0,1,.48,1.34c.18,1-.35,1.93-1.78,3.11a2.8,2.8,0,0,1-1.77.82h0a2.42,2.42,0,0,1-1.35-.54c-.2-.13-.4-.25-.62-.37-1.88-1-3.86-.1-5.18.7A5.11,5.11,0,0,0,30.62,48a2.69,2.69,0,0,1-1.52,1.87,5,5,0,0,1-2.93,0A2.71,2.71,0,0,1,24.65,48a5.11,5.11,0,0,0-2.5-2.94,6.87,6.87,0,0,0-3.4-1.16A3.64,3.64,0,0,0,17,44.4l-.59.35a2.26,2.26,0,0,1-1.5.55,3,3,0,0,1-1.65-.81c-1.46-1.21-2-2.17-1.75-3.21A6.14,6.14,0,0,1,12,40a4.78,4.78,0,0,0,.53-3.14,7.67,7.67,0,0,0-1-2.47.85.85,0,0,0-.73-.39h0A.87.87,0,0,0,10,35.33a6,6,0,0,1,.73,1.88,3,3,0,0,1-.41,2.06,7.87,7.87,0,0,0-.59,1.63c-.5,2.26,1.1,3.9,2.34,4.93A4.79,4.79,0,0,0,14.74,47a4,4,0,0,0,2.56-.81l.51-.31c.84-.46,1.9-.25,3.44.67a3.5,3.5,0,0,1,1.75,2,4.31,4.31,0,0,0,2.57,3,6,6,0,0,0,2.06.33,6.34,6.34,0,0,0,2.07-.32,4.33,4.33,0,0,0,2.57-3,3.5,3.5,0,0,1,1.75-2c1.54-.92,2.6-1.13,3.44-.66.19.1.36.21.53.31a4,4,0,0,0,2.28.81h0a4.58,4.58,0,0,0,2.89-1.22c.77-.64,2.81-2.33,2.38-4.75a7.55,7.55,0,0,0-.62-1.78,3.18,3.18,0,0,1-.45-1.93A4.7,4.7,0,0,1,46.61,34a5.89,5.89,0,0,1,.84-.29,4.63,4.63,0,0,0,1.81-.85C50.91,31.43,50.71,28.93,50.61,27.74Z"/><path class="cls-2" d="M27.63,51.94a6.25,6.25,0,0,1-2.09-.32,4.46,4.46,0,0,1-2.62-3,3.41,3.41,0,0,0-1.71-2c-1.52-.9-2.55-1.11-3.36-.66-.17.09-.33.19-.49.29l0,0a4.08,4.08,0,0,1-2.6.81,4.82,4.82,0,0,1-2.68-1.22c-1.26-1-2.88-2.71-2.36-5a7.87,7.87,0,0,1,.59-1.63,3,3,0,0,0,.4-2A5.69,5.69,0,0,0,10,35.37a.94.94,0,0,1,0-1,.94.94,0,0,1,1.6,0,7.6,7.6,0,0,1,1,2.5A4.77,4.77,0,0,1,12,40a6.41,6.41,0,0,0-.48,1.26c-.22,1,.3,2,1.73,3.14a3,3,0,0,0,1.61.8,2.3,2.3,0,0,0,1.45-.54l.6-.36a3.71,3.71,0,0,1,1.82-.47A7,7,0,0,1,22.18,45a5.16,5.16,0,0,1,2.54,3,2.64,2.64,0,0,0,1.48,1.82,5,5,0,0,0,2.87,0A2.64,2.64,0,0,0,30.55,48a5.18,5.18,0,0,1,2.53-3c1.34-.8,3.34-1.75,5.26-.7l.62.38a2.39,2.39,0,0,0,1.31.53A2.77,2.77,0,0,0,42,44.43c1.4-1.16,1.92-2.07,1.75-3a5.22,5.22,0,0,0-.48-1.32,4.85,4.85,0,0,1-.59-3,6.41,6.41,0,0,1,3.14-4.75,7,7,0,0,1,1.12-.41,3,3,0,0,0,1.15-.49c.82-.7.82-2.12.71-3.56a2.22,2.22,0,0,0-1.61-2.08L47,25.73a5.21,5.21,0,0,1-2.65-1.57,6.83,6.83,0,0,1-1.7-4.33,5.36,5.36,0,0,1,.68-2.37,3.3,3.3,0,0,0,.48-1.76,4.33,4.33,0,0,0-2-2.61c-1-.75-1.81-.74-3,0-1.92,1.21-3.64.61-5.08-.14a5.74,5.74,0,0,1-3.11-3.39,2.41,2.41,0,0,0-2-1.86c-1.37-.2-3.15,0-3.8,1.86a6.62,6.62,0,0,1-4,3.87,4.78,4.78,0,0,1-4.21-.34c-1.23-.77-2-.78-3,0a4.39,4.39,0,0,0-2,2.61A3.36,3.36,0,0,0,12,17.45a5.45,5.45,0,0,1,.68,2.38,6.57,6.57,0,0,1-1,3.36v0a.84.84,0,0,1-.88.57,1,1,0,0,1-.87-.57.84.84,0,0,1,0-.83,4.06,4.06,0,0,0,.83-2.55,3.82,3.82,0,0,0-.5-1.57,4.84,4.84,0,0,1-.65-2.79c.16-1.35,1.09-2.67,2.77-3.91a4.21,4.21,0,0,1,5.18,0,3,3,0,0,0,2.57.15A4.71,4.71,0,0,0,23,9c.82-2.4,2.95-3.54,5.86-3.12A4.25,4.25,0,0,1,32.31,9a3.82,3.82,0,0,0,2.2,2.32c1.41.74,2.28.8,3.2.22a4.21,4.21,0,0,1,5.18,0c1.68,1.24,2.61,2.56,2.77,3.92A4.83,4.83,0,0,1,45,18.26a3.82,3.82,0,0,0-.5,1.57,5,5,0,0,0,1.24,3.09,3.46,3.46,0,0,0,1.82,1l.22.07a4.12,4.12,0,0,1,2.9,3.72h0c.09,1.21.3,3.73-1.38,5.15a4.46,4.46,0,0,1-1.84.87,5.75,5.75,0,0,0-.83.29,4.64,4.64,0,0,0-2.09,3.34A3.12,3.12,0,0,0,45,39.27a6.69,6.69,0,0,1,.63,1.79c.44,2.47-1.63,4.18-2.41,4.83a4.65,4.65,0,0,1-2.93,1.24A4.15,4.15,0,0,1,38,46.31c-.17-.11-.34-.22-.52-.32-.82-.45-1.86-.24-3.37.66a3.39,3.39,0,0,0-1.72,2,4.41,4.41,0,0,1-2.62,3A6.25,6.25,0,0,1,27.63,51.94Zm-8.87-6.33a5.19,5.19,0,0,1,2.53.92,3.56,3.56,0,0,1,1.78,2,4.25,4.25,0,0,0,2.52,2.91,5.94,5.94,0,0,0,2,.32,6.21,6.21,0,0,0,2-.31,4.28,4.28,0,0,0,2.53-2.92,3.52,3.52,0,0,1,1.78-2c1.56-.94,2.65-1.15,3.52-.67l.52.31a3.92,3.92,0,0,0,2.25.81,4.53,4.53,0,0,0,2.84-1.21c.76-.63,2.78-2.3,2.36-4.68a7.14,7.14,0,0,0-.62-1.75,3.19,3.19,0,0,1-.45-2,4.81,4.81,0,0,1,2.18-3.46,5.66,5.66,0,0,1,.85-.29,4.49,4.49,0,0,0,1.78-.84c1.62-1.37,1.42-3.84,1.33-5a4,4,0,0,0-2.8-3.59l-.22-.07A3.6,3.6,0,0,1,45.63,23a5.18,5.18,0,0,1-1.27-3.19,4,4,0,0,1,.51-1.63,4.81,4.81,0,0,0,.64-2.71c-.15-1.31-1.07-2.59-2.71-3.81a4.06,4.06,0,0,0-5,0c-1,.61-1.88.55-3.35-.22A3.93,3.93,0,0,1,32.17,9,4.11,4.11,0,0,0,28.8,6C26,5.6,23.89,6.7,23.1,9a4.85,4.85,0,0,1-2.92,2.78,3.14,3.14,0,0,1-2.7-.16,4.06,4.06,0,0,0-5,0c-1.64,1.22-2.56,2.5-2.72,3.81a4.89,4.89,0,0,0,.64,2.71,3.83,3.83,0,0,1,.52,1.63,4.12,4.12,0,0,1-.86,2.64.7.7,0,0,0,0,.68.84.84,0,0,0,.74.48.74.74,0,0,0,.75-.48l0,0a6.54,6.54,0,0,0,1-3.28,5.17,5.17,0,0,0-.67-2.31,3.42,3.42,0,0,1-.49-1.84A4.51,4.51,0,0,1,13.42,13c1.07-.8,1.91-.79,3.21,0a4.63,4.63,0,0,0,4.08.31,6.44,6.44,0,0,0,3.9-3.77c.68-2,2.53-2.16,4-2a2.57,2.57,0,0,1,2.08,2,5.55,5.55,0,0,0,3,3.3c1.4.73,3.08,1.32,4.93.16,1.31-.82,2.15-.83,3.22,0a4.54,4.54,0,0,1,2.08,2.71,3.33,3.33,0,0,1-.5,1.84,5.34,5.34,0,0,0-.66,2.31,6.69,6.69,0,0,0,1.66,4.23A5.07,5.07,0,0,0,47,25.59l.21.07A2.36,2.36,0,0,1,49,27.87c.12,1.47.11,2.94-.77,3.68a3.17,3.17,0,0,1-1.19.53,7.42,7.42,0,0,0-1.11.39,6.28,6.28,0,0,0-3.05,4.64A4.65,4.65,0,0,0,43.4,40a5.56,5.56,0,0,1,.5,1.36c.18,1-.36,2-1.81,3.18a2.9,2.9,0,0,1-1.82.84,2.47,2.47,0,0,1-1.39-.56c-.2-.13-.4-.25-.62-.37-1.84-1-3.79-.08-5.1.7a5.07,5.07,0,0,0-2.47,2.9A2.74,2.74,0,0,1,29.12,50a5.18,5.18,0,0,1-3,0,2.76,2.76,0,0,1-1.57-1.92,5.07,5.07,0,0,0-2.47-2.9A6.88,6.88,0,0,0,18.75,44a3.67,3.67,0,0,0-1.75.44l-.59.36a2.34,2.34,0,0,1-1.55.55,3,3,0,0,1-1.68-.82c-1.49-1.23-2-2.22-1.78-3.29A5.7,5.7,0,0,1,11.88,40a4.66,4.66,0,0,0,.52-3.09,7.64,7.64,0,0,0-1-2.45.8.8,0,0,0-.67-.36.77.77,0,0,0-.68.4.78.78,0,0,0,0,.82,6,6,0,0,1,.73,1.9,3.06,3.06,0,0,1-.41,2.11,8.11,8.11,0,0,0-.59,1.61c-.49,2.23,1.09,3.84,2.32,4.86A4.68,4.68,0,0,0,14.75,47a3.92,3.92,0,0,0,2.51-.79l0,0c.16-.1.32-.2.49-.29A1.94,1.94,0,0,1,18.76,45.61Z"/><path class="cls-1" d="M26.24,29.72H1.34a.87.87,0,1,1,0-1.74h24.9a.87.87,0,0,1,0,1.74Z"/></svg>