<svg id="Layer_1" data-name="Layer 1" xmlns="http://www.w3.org/2000/svg" viewBox="0 0 59.6 55.27"><defs><style>.cls-1{fill:#22cefa;}.cls-2{fill:#3566e7;}</style></defs><title>icons_layout</title><path class="cls-1" d="M12.14,50.86V40.76a6.82,6.82,0,0,1,13.64,0v10.1"/><path class="cls-2" d="M25.78,51.84a1,1,0,0,1-1-1V40.76a5.84,5.84,0,1,0-11.67,0v10.1a1,1,0,1,1-2,0V40.76a7.8,7.8,0,0,1,15.6,0v10.1A1,1,0,0,1,25.78,51.84Z"/><path class="cls-2" d="M36.48,52.17h-35a1,1,0,0,1-1-1V18a2.91,2.91,0,0,1,2.91-2.91h2.8A2.91,2.91,0,0,1,9.09,18v3.71h5.8V18a2.91,2.91,0,0,1,2.92-2.91h2.3A2.91,2.91,0,0,1,23,18v3.71h5.81V18a2.91,2.91,0,0,1,2.92-2.91h2.79A2.91,2.91,0,0,1,37.46,18V51.18A1,1,0,0,1,36.48,52.17Zm-34.06-2H35.5V22.87a.67.67,0,0,1,0-.2s0-.1,0-.12V18a1,1,0,0,0-1-.95H31.75a1,1,0,0,0-1,.95v4.59a1,1,0,0,1-.26.75,1,1,0,0,1-.71.33H22a1,1,0,0,1-.71-.3,1,1,0,0,1-.27-.72.68.68,0,0,1,0-.14V18a1,1,0,0,0-.95-.95h-2.3a1,1,0,0,0-.95.95v4.59a1.06,1.06,0,0,1-.26.75,1,1,0,0,1-.71.33H8.09a1,1,0,0,1-1-1,.45.45,0,0,1,0-.12V18a1,1,0,0,0-1-.95H3.37a1,1,0,0,0-1,.95V50.2Z"/><path class="cls-2" d="M19,11.26a1,1,0,0,1-.53-.15,1,1,0,0,1-.45-.83V1.41A1,1,0,0,1,19.37.52L28.85,4.9a1,1,0,0,1,.57.89,1,1,0,0,1-.56.89l-9.48,4.49A1,1,0,0,1,19,11.26Zm1-8.32V8.73L26.13,5.8Z"/><path class="cls-2" d="M19,17.09a1,1,0,0,1-1-1V2.18a1,1,0,0,1,2,0V16.11A1,1,0,0,1,19,17.09Z"/><rect class="cls-1" x="13.12" y="49.51" width="11.67" height="2.65"/></svg>