<svg id="Layer_1" data-name="Layer 1" xmlns="http://www.w3.org/2000/svg" xmlns:xlink="http://www.w3.org/1999/xlink" viewBox="0 0 59.6 55.27"><defs><style>.cls-1{fill:none;}.cls-2{fill:#3566e7;}.cls-3{fill:#22cefa;}.cls-4{clip-path:url(#clip-path);}</style><clipPath id="clip-path"><path class="cls-1" d="M40.71,38.14c.1-.25.18-.5.26-.75l.15-.5c.07-.29.13-.58.19-.87s.06-.27.08-.41a12.18,12.18,0,0,0,.14-1.34h0v-.19c0-.34,0-.69,0-1s0-.42-.06-.63l-.06-.58c0-.24-.09-.47-.14-.7s-.06-.34-.1-.5S41,30.19,41,30s-.1-.35-.16-.52-.15-.39-.23-.58-.15-.38-.24-.56-.17-.33-.25-.49-.21-.4-.33-.6-.19-.29-.28-.43-.26-.4-.4-.59-.25-.3-.37-.45a4.83,4.83,0,0,0-.41-.49,10.18,10.18,0,0,0-.73-.74,1.59,1.59,0,0,0-.13-.13h0c-.31-.28-.64-.54-1-.79l-.33-.23c-.23-.16-.46-.32-.7-.46a4.59,4.59,0,0,0-.49-.26l-.59-.32c-.19-.09-.38-.16-.57-.24s-.37-.16-.57-.23-.43-.14-.65-.2l-.52-.16c-.28-.07-.56-.12-.84-.17l-.37-.07c-.42-.06-.83-.1-1.25-.12h-.18c-.35,0-.7,0-1.05,0s-.42,0-.63.06l-.59.06-.7.14-.5.1-.66.19-.52.17-.57.23c-.19.08-.38.15-.57.24l-.48.25c-.2.11-.41.21-.61.33l-.42.28c-.2.13-.4.26-.59.4l-.46.37-.49.4q-.39.36-.75.75l-.12.12h0a12.49,12.49,0,0,0-.8,1l-.22.32c-.16.23-.32.46-.47.71s-.17.32-.26.48-.22.39-.31.6-.16.38-.24.57-.17.37-.24.56-.13.44-.19.65a5.34,5.34,0,0,0-.16.53c-.07.28-.12.55-.17.83,0,.13-.06.25-.07.38a10.38,10.38,0,0,0-.13,1.25h0a1,1,0,0,1,0,.17c0,.35,0,.7,0,1s0,.42.06.63,0,.39.06.59.08.46.13.7.06.33.11.5.12.44.19.66.1.34.16.52.15.38.23.57.16.38.25.57.16.32.25.48.21.41.33.6a4,4,0,0,0,.28.43c.13.2.25.4.4.59s.24.31.36.46.26.33.41.49a10.33,10.33,0,0,0,.74.74l.12.13h0l.11.09a8.81,8.81,0,0,0,.75.62l.3.22.63.42.34.21c.22.13.45.25.68.37l.31.15c.32.15.65.29,1,.41l.05,0q.54.18,1.08.33l.31.07c.28.07.56.12.84.17l.32.05.23,0h.06c.28,0,.57.07.86.09a12.69,12.69,0,0,0,5.3-.91h0l.14-.07c.35-.15.7-.31,1-.49l.15-.09.71-.41,0,0a12.75,12.75,0,0,0,2.47-2.08A12.43,12.43,0,0,0,40,39.66l0,0c.05-.1.09-.19.13-.29s.23-.45.33-.68S40.65,38.31,40.71,38.14Z"/></clipPath></defs><title>icons_layout</title><path class="cls-2" d="M.83,21.7A4.56,4.56,0,0,1,.15,19a4.51,4.51,0,0,1,.68-2.68,2.25,2.25,0,0,1,2-.94,2.26,2.26,0,0,1,2,.94A4.51,4.51,0,0,1,5.42,19a4.56,4.56,0,0,1-.67,2.7,2.28,2.28,0,0,1-2,.93A2.27,2.27,0,0,1,.83,21.7Zm2.8-.84A4.73,4.73,0,0,0,3.9,19a4.64,4.64,0,0,0-.27-1.85.87.87,0,0,0-.84-.57.89.89,0,0,0-.85.57A4.67,4.67,0,0,0,1.67,19a4.73,4.73,0,0,0,.27,1.86.88.88,0,0,0,.85.58A.86.86,0,0,0,3.63,20.86Z"/><path class="cls-3" d="M11.6,21.91c0,.42-.24.63-.73.63H7.44c-.49,0-.74-.21-.74-.63s.25-.62.74-.62h.93v-4.1l-.88.53a.58.58,0,0,1-.3.09.54.54,0,0,1-.43-.21.75.75,0,0,1-.17-.47.56.56,0,0,1,.31-.53l1.58-1a1.38,1.38,0,0,1,.7-.21.74.74,0,0,1,.55.21.75.75,0,0,1,.21.56v5.09h.93C11.36,21.29,11.6,21.5,11.6,21.91Z"/><path class="cls-2" d="M12.86,21.7a4.56,4.56,0,0,1-.68-2.7,4.51,4.51,0,0,1,.68-2.68,2.25,2.25,0,0,1,2-.94,2.25,2.25,0,0,1,2,.94A4.51,4.51,0,0,1,17.46,19a4.56,4.56,0,0,1-.68,2.7,2.27,2.27,0,0,1-2,.93A2.27,2.27,0,0,1,12.86,21.7Zm2.81-.84A5,5,0,0,0,15.93,19a4.87,4.87,0,0,0-.26-1.85.92.92,0,0,0-1.7,0A4.9,4.9,0,0,0,13.71,19,5,5,0,0,0,14,20.86a.91.91,0,0,0,1.7,0Z"/><path class="cls-3" d="M23.63,21.91c0,.42-.24.63-.73.63H19.47c-.49,0-.74-.21-.74-.63s.25-.62.74-.62h.94v-4.1l-.89.53a.58.58,0,0,1-.3.09.51.51,0,0,1-.42-.21.71.71,0,0,1-.18-.47.56.56,0,0,1,.31-.53l1.59-1a1.32,1.32,0,0,1,.7-.21.73.73,0,0,1,.54.21.75.75,0,0,1,.21.56v5.09h.93C23.39,21.29,23.63,21.5,23.63,21.91Z"/><path class="cls-3" d="M.83,33.73A4.54,4.54,0,0,1,.15,31a4.54,4.54,0,0,1,.68-2.69,2.27,2.27,0,0,1,2-.93,2.28,2.28,0,0,1,2,.93A4.55,4.55,0,0,1,5.42,31a4.55,4.55,0,0,1-.67,2.69,2.26,2.26,0,0,1-2,.94A2.25,2.25,0,0,1,.83,33.73Zm2.8-.84A4.67,4.67,0,0,0,3.9,31a4.66,4.66,0,0,0-.27-1.86.87.87,0,0,0-.84-.57.88.88,0,0,0-.85.58A4.64,4.64,0,0,0,1.67,31a4.67,4.67,0,0,0,.27,1.85.88.88,0,0,0,.85.58A.86.86,0,0,0,3.63,32.89Z"/><path class="cls-2" d="M11.6,33.94c0,.43-.24.64-.73.64H7.44c-.49,0-.74-.21-.74-.64s.25-.62.74-.62h.93v-4.1l-.88.53a.58.58,0,0,1-.3.09.54.54,0,0,1-.43-.21.73.73,0,0,1-.17-.47.57.57,0,0,1,.31-.53l1.58-.95a1.38,1.38,0,0,1,.7-.21.77.77,0,0,1,.55.2.75.75,0,0,1,.21.56v5.09h.93C11.36,33.32,11.6,33.53,11.6,33.94Z"/><path class="cls-3" d="M12.86,33.73A4.54,4.54,0,0,1,12.18,31a4.54,4.54,0,0,1,.68-2.69,2.27,2.27,0,0,1,2-.93,2.27,2.27,0,0,1,2,.93c.45.62-.35,1-.35,2.2s-.05,2.88-.5,3.5-.25.62-1.11.62A2.25,2.25,0,0,1,12.86,33.73Zm2.81-.84A4.9,4.9,0,0,0,15.93,31a4.89,4.89,0,0,0-.26-1.86.92.92,0,0,0-1.7,0A4.87,4.87,0,0,0,13.71,31,4.9,4.9,0,0,0,14,32.89a.91.91,0,0,0,1.7,0Z"/><path class="cls-2" d="M29,48.1a14.41,14.41,0,0,1-2.53-.22.94.94,0,0,1-.76-1.08.93.93,0,0,1,1.08-.75A12.59,12.59,0,1,0,21,43.41a.93.93,0,0,1-1.18,1.44A14.41,14.41,0,1,1,29,48.1Z"/><path class="cls-2" d="M27.35,48h-.11a14.39,14.39,0,1,1,7.18-1,.93.93,0,0,1-.7-1.73,12.26,12.26,0,0,0,4.56-3.18,12.56,12.56,0,1,0-10.82,4A.93.93,0,0,1,27.35,48Z"/><path class="cls-2" d="M57.22,51.07a.84.84,0,0,1-.46-.13l-15.69-9A.93.93,0,1,1,42,40.28l15.69,9a.93.93,0,0,1-.47,1.74Z"/><g class="cls-4"><path class="cls-3" d="M11,39.8c0,.87-.5,1.31-1.51,1.31H2.41c-1,0-1.53-.44-1.53-1.31s.51-1.28,1.53-1.28H4.34V30.05l-1.83,1.1a1.21,1.21,0,0,1-.62.19A1.12,1.12,0,0,1,1,30.9a1.48,1.48,0,0,1-.36-1,1.2,1.2,0,0,1,.64-1.1l3.27-2A2.83,2.83,0,0,1,6,26.43,1.48,1.48,0,0,1,7.56,28V38.52H9.49C10.5,38.52,11,39,11,39.8Z"/><path class="cls-2" d="M13.6,39.37a9.4,9.4,0,0,1-1.4-5.57,9.4,9.4,0,0,1,1.4-5.55,4.7,4.7,0,0,1,4-1.92,4.69,4.69,0,0,1,4,1.92,9.4,9.4,0,0,1,1.4,5.55,9.4,9.4,0,0,1-1.4,5.57,4.69,4.69,0,0,1-4,1.92A4.7,4.7,0,0,1,13.6,39.37Zm5.79-1.74a9.76,9.76,0,0,0,.55-3.83A9.66,9.66,0,0,0,19.39,30a1.88,1.88,0,0,0-3.49,0,9.67,9.67,0,0,0-.55,3.82,9.76,9.76,0,0,0,.55,3.83,1.87,1.87,0,0,0,3.49,0Z"/><path class="cls-3" d="M35.84,39.8c0,.87-.5,1.31-1.51,1.31H27.25c-1,0-1.53-.44-1.53-1.31s.51-1.28,1.53-1.28h1.92V30.05l-1.82,1.1a1.21,1.21,0,0,1-.62.19,1.12,1.12,0,0,1-.88-.44,1.48,1.48,0,0,1-.36-1,1.2,1.2,0,0,1,.64-1.1l3.27-2a2.83,2.83,0,0,1,1.45-.44A1.48,1.48,0,0,1,32.4,28V38.52h1.93C35.34,38.52,35.84,39,35.84,39.8Z"/><path class="cls-2" d="M11,64.64c0,.87-.5,1.31-1.51,1.31H2.41c-1,0-1.53-.44-1.53-1.31s.51-1.28,1.53-1.28H4.34V54.89L2.51,56a1.21,1.21,0,0,1-.62.19A1.12,1.12,0,0,1,1,55.74a1.48,1.48,0,0,1-.36-1,1.2,1.2,0,0,1,.64-1.1l3.27-2A2.83,2.83,0,0,1,6,51.27a1.48,1.48,0,0,1,1.55,1.57V63.36H9.49C10.5,63.36,11,63.79,11,64.64Z"/><path class="cls-3" d="M13.6,64.21a9.4,9.4,0,0,1-1.4-5.57,9.4,9.4,0,0,1,1.4-5.55,4.7,4.7,0,0,1,4-1.92,4.69,4.69,0,0,1,4,1.92,9.4,9.4,0,0,1,1.4,5.55,9.4,9.4,0,0,1-1.4,5.57,4.69,4.69,0,0,1-4,1.92A4.7,4.7,0,0,1,13.6,64.21Zm5.79-1.74a9.76,9.76,0,0,0,.55-3.83,9.66,9.66,0,0,0-.55-3.83,1.88,1.88,0,0,0-3.49,0,9.67,9.67,0,0,0-.55,3.82,9.76,9.76,0,0,0,.55,3.83,1.87,1.87,0,0,0,3.49,0Z"/><path class="cls-2" d="M35.84,64.64c0,.87-.5,1.31-1.51,1.31H27.25c-1,0-1.53-.44-1.53-1.31s.51-1.28,1.53-1.28h1.92V54.89L27.35,56a1.21,1.21,0,0,1-.62.19,1.12,1.12,0,0,1-.88-.44,1.48,1.48,0,0,1-.36-1,1.2,1.2,0,0,1,.64-1.1l3.27-2a2.83,2.83,0,0,1,1.45-.44,1.48,1.48,0,0,1,1.55,1.57V63.36h1.93C35.34,63.36,35.84,63.79,35.84,64.64Z"/></g><path class="cls-2" d="M42.48,22.64a.91.91,0,0,1-.82-.5,9.13,9.13,0,0,0-2.59-3.07,9,9,0,0,0-5.47-1.84,8.9,8.9,0,0,0-1.39.11.93.93,0,0,1-1.06-.78.94.94,0,0,1,.78-1.06,8.59,8.59,0,0,1,1.67-.12,10.93,10.93,0,0,1,9.71,5.91.92.92,0,0,1-.83,1.35Z"/><path class="cls-2" d="M43.56,17.19a.92.92,0,0,1-.71-.33,9,9,0,0,0-1.49-1.41,9,9,0,0,0-5.47-1.84h0a.94.94,0,0,1-.93-.93,1,1,0,0,1,1-.93A10.82,10.82,0,0,1,42.48,14a10.32,10.32,0,0,1,1.79,1.7A.93.93,0,0,1,44.16,17,1,1,0,0,1,43.56,17.19Z"/></svg>