<svg id="Layer_1" data-name="Layer 1" xmlns="http://www.w3.org/2000/svg" viewBox="0 0 59.6 55.27"><defs><style>.cls-1{fill:#3566e7;}.cls-2,.cls-3{fill:none;}.cls-2{stroke:#3566e7;stroke-linecap:round;stroke-linejoin:round;stroke-width:1.97px;}.cls-3{stroke:#22cefa;stroke-miterlimit:10;stroke-width:1.97px;}.cls-4{fill:#22cefa;}</style></defs><title>icons_layout</title><path class="cls-1" d="M44.09,50.19H11.27a11.08,11.08,0,0,1-.61-22.14A18.42,18.42,0,0,1,45.88,25.1a12.61,12.61,0,0,1-1.79,25.09ZM11.31,30a9.11,9.11,0,1,0,0,18.21H44.09a10.64,10.64,0,0,0,1-21.23,1,1,0,0,1-.84-.66,16.46,16.46,0,0,0-31.78,2.85,1,1,0,0,1-1,.84Z"/><path class="cls-2" d="M11.27,29a10.07,10.07,0,0,1,6.61,2.46"/><path class="cls-2" d="M45.25,26c-.4-.05-1.16-.07-1.16-.07a11.59,11.59,0,0,0-6.94,2.3"/><path class="cls-3" d="M25.35,30.12a5.94,5.94,0,1,1,11.88,0v5.62l-11.76,0h-.12Z"/><path class="cls-4" d="M41.93,37.35a.59.59,0,0,0,0-.14c0-.05,0-.09,0-.14a1.21,1.21,0,0,0,0-.18.19.19,0,0,0,0-.08,1.18,1.18,0,0,0-.07-.2.14.14,0,0,0,0-.06l-.09-.21,0,0-.12-.21v0l-.15-.21h0a2.9,2.9,0,0,0-2.19-1.12l-.85-.06h-14l-.85.06a2.88,2.88,0,0,0-2.18,1.12h0l-.14.21v0a2.39,2.39,0,0,0-.13.21v0a2,2,0,0,0-.1.21s0,0,0,.06,0,.13-.07.2,0,0,0,.08,0,.12,0,.18a.68.68,0,0,1,0,.14.78.78,0,0,1,0,.14,2.62,2.62,0,0,0,0,.28V49.92a2.88,2.88,0,0,0,2.88,2.88H39.06a2.88,2.88,0,0,0,2.88-2.88V37.63A2.62,2.62,0,0,0,41.93,37.35Zm-10.19,8v2.39a.45.45,0,1,1-.9,0V45.34a1.79,1.79,0,1,1,.9,0ZM25.07,34.75H25l11.87,0Z"/></svg>