<svg id="Layer_1" data-name="Layer 1" xmlns="http://www.w3.org/2000/svg" viewBox="0 0 59.6 55.27"><defs><style>.cls-1{fill:#3566e7;}.cls-2{fill:#22cefa;}</style></defs><title>icons_layout</title><path class="cls-1" d="M17.35,44.28a1.16,1.16,0,0,1-.48-.11,1.05,1.05,0,0,1-.46-1.42,5.79,5.79,0,0,1,3.46-3,5.63,5.63,0,0,1,4.4.43,1.06,1.06,0,0,1-1,1.86,3.5,3.5,0,0,0-2.76-.27,3.71,3.71,0,0,0-2.21,1.89A1,1,0,0,1,17.35,44.28Z"/><path class="cls-1" d="M15.77,30.62a1.05,1.05,0,0,1-.66-1.88,11.8,11.8,0,0,0,1.14-1.09,5.62,5.62,0,0,1,4.39-2.22,5.7,5.7,0,0,1,4.25,2.37A1.05,1.05,0,1,1,23.17,29a3.67,3.67,0,0,0-2.53-1.48c-1.36,0-2,.63-2.86,1.57a12.94,12.94,0,0,1-1.35,1.28A1,1,0,0,1,15.77,30.62Z"/><path class="cls-1" d="M12.35,39.54A4.39,4.39,0,0,1,8,35.09a1.06,1.06,0,1,1,2.11,0,2.29,2.29,0,0,0,2.22,2.34,1.06,1.06,0,1,1,0,2.11Z"/><path class="cls-1" d="M7.43,31.46a1.06,1.06,0,0,1,0-2.11,2.34,2.34,0,0,0,0-4.68,1.06,1.06,0,0,1,0-2.11,4.45,4.45,0,0,1,0,8.9Z"/><path class="cls-1" d="M10.44,45.62a.84.84,0,0,1-.27,0A8.4,8.4,0,0,1,4,37.39c0-.21,0-.42,0-.65A10.46,10.46,0,0,1,4,20.51c0-.22,0-.44,0-.65a8.43,8.43,0,0,1,6-8.15,1.05,1.05,0,1,1,.57,2,6.31,6.31,0,0,0-4.48,6.12,6,6,0,0,0,.08,1,1.09,1.09,0,0,1-.44,1,8.33,8.33,0,0,0,0,13.53,1.09,1.09,0,0,1,.44,1,6,6,0,0,0-.08,1,6.28,6.28,0,0,0,4.59,6.15,1.06,1.06,0,0,1-.27,2.08Z"/><path class="cls-1" d="M24,51H16.71a7.68,7.68,0,0,1,0-15.35,1.06,1.06,0,1,1,0,2.11,5.56,5.56,0,0,0,0,11.12H23V8.23H16.71a5.46,5.46,0,0,0-5.33,5.56,5.45,5.45,0,0,0,5.33,5.56,1.06,1.06,0,1,1,0,2.12,7.58,7.58,0,0,1-7.45-7.68,7.57,7.57,0,0,1,7.45-7.67H24a1.06,1.06,0,0,1,1.06,1.06V50A1.07,1.07,0,0,1,24,51Z"/><path class="cls-1" d="M22.11,18.43a5.6,5.6,0,0,1-2.63-.66,5.87,5.87,0,0,1-2.91-3.55,1.06,1.06,0,1,1,2-.61,3.83,3.83,0,0,0,1.87,2.29,3.56,3.56,0,0,0,2.75.24,1.06,1.06,0,1,1,.65,2A5.82,5.82,0,0,1,22.11,18.43Z"/><path class="cls-2" d="M29.29,50h4.14a.58.58,0,0,0,.41-.17l.84-.88a.6.6,0,0,0,.16-.33l.66-4.76A15.64,15.64,0,0,0,38.62,42l4.31,1.79a.56.56,0,0,0,.36,0l1.15-.33a.56.56,0,0,0,.35-.27l4.36-7.81a.64.64,0,0,0,.06-.45l-.31-1.19a.7.7,0,0,0-.2-.32l-3.66-3a16.3,16.3,0,0,0,.11-1.86A16.61,16.61,0,0,0,45,26.7l3.66-3a.7.7,0,0,0,.2-.32l.31-1.19a.69.69,0,0,0-.06-.45L44.79,14a.55.55,0,0,0-.34-.28l-1.16-.32a.63.63,0,0,0-.36,0l-4.31,1.79a16.08,16.08,0,0,0-3.12-1.86l-.66-4.76a.6.6,0,0,0-.16-.34l-.84-.87a.58.58,0,0,0-.41-.17H29.29l-.21,12.26a9,9,0,0,1,8.81,9.13,9,9,0,0,1-8.81,9.13Z"/><path class="cls-2" d="M33.43,50.9H28.36l-.25-14.15h1A8,8,0,0,0,37,28.57a8,8,0,0,0-7.87-8.19h-1l.25-14.15h5.07a1.51,1.51,0,0,1,1.09.47l.84.87a1.52,1.52,0,0,1,.42.86l.58,4.25a15.57,15.57,0,0,1,2.39,1.43l3.82-1.59a1.47,1.47,0,0,1,1-.06l1.16.32a1.54,1.54,0,0,1,.92.72L50,21.32a1.51,1.51,0,0,1,.15,1.14l-.31,1.2a1.5,1.5,0,0,1-.52.81L46,27.12c0,.49.06,1,.06,1.45s0,.95-.06,1.45l3.26,2.65a1.5,1.5,0,0,1,.52.81l.31,1.19A1.6,1.6,0,0,1,50,35.82l-4.36,7.81a1.47,1.47,0,0,1-.92.72l-1.16.33a1.61,1.61,0,0,1-1-.06L38.75,43a16.42,16.42,0,0,1-2.39,1.43l-.58,4.25a1.52,1.52,0,0,1-.42.86l-.85.87A1.47,1.47,0,0,1,33.43,50.9Zm-.28-1.77ZM30.22,49h3.05l.65-.68.71-5.16.48-.22a14.87,14.87,0,0,0,2.94-1.76l.43-.33,4.69,2,.87-.24L48.26,35l-.25-1-4-3.22.05-.51a15.33,15.33,0,0,0,.1-1.76,15.62,15.62,0,0,0-.1-1.77l-.05-.51,4-3.21.25-1L44,14.56l-.87-.24-4.69,1.94-.43-.33a14.82,14.82,0,0,0-2.94-1.75L34.63,14,33.92,8.8l-.65-.68H30.22L30,18.54a10.11,10.11,0,0,1,0,20.05ZM34,48.26Zm9-5.4Zm.93-.15Zm.22-.18Zm4.1-7.38h0Zm0-12.91Zm-5-8ZM33.16,8Z"/></svg>