<svg id="Layer_1" data-name="Layer 1" xmlns="http://www.w3.org/2000/svg" viewBox="0 0 59.6 55.27"><defs><style>.cls-1{fill:#3566e7;}.cls-2{fill:#22cefa;}</style></defs><title>icons_layout</title><path class="cls-1" d="M12,46.75a.92.92,0,0,1-.45-.12L.62,40.34a.9.9,0,0,1-.45-.78V27a.88.88,0,0,1,.45-.77l10.9-6.3a.9.9,0,0,1,.9,0l10.9,6.3a.88.88,0,0,1,.45.77V39.56a.9.9,0,0,1-.45.78l-10.9,6.29A.92.92,0,0,1,12,46.75ZM2,39.05l10,5.78,10-5.78V27.49L12,21.71,2,27.49Z"/><path class="cls-1" d="M12,34.16a.92.92,0,0,1-.45-.12L.62,27.74a.89.89,0,1,1,.89-1.54l10.46,6,10.46-6a.89.89,0,1,1,.89,1.54L12.42,34A.92.92,0,0,1,12,34.16Z"/><path class="cls-1" d="M12,46.75a.89.89,0,0,1-.89-.89V33.27a.89.89,0,1,1,1.78,0V45.86A.89.89,0,0,1,12,46.75Z"/><polygon class="cls-2" points="1.06 7.86 1.06 20.45 11.97 26.75 22.87 20.45 22.87 7.86 11.97 1.56 1.06 7.86"/><path class="cls-1" d="M12,27.64a.92.92,0,0,1-.45-.12L.62,21.23a.9.9,0,0,1-.45-.78V7.86a.88.88,0,0,1,.45-.77L11.52.79a.9.9,0,0,1,.9,0l10.9,6.3a.88.88,0,0,1,.45.77V20.45a.9.9,0,0,1-.45.78l-10.9,6.29A.92.92,0,0,1,12,27.64ZM2,19.94l10,5.78,10-5.78V8.38L12,2.6,2,8.38Z"/><polyline class="cls-2" points="1.06 7.86 11.97 14.16 22.87 7.86"/><path class="cls-1" d="M12,15.05a.92.92,0,0,1-.45-.12L.62,8.63a.89.89,0,1,1,.89-1.54l10.46,6,10.46-6a.89.89,0,1,1,.89,1.54l-10.9,6.3A.92.92,0,0,1,12,15.05Z"/><path class="cls-1" d="M12,27.64a.89.89,0,0,1-.89-.89V14.16a.89.89,0,1,1,1.78,0V26.75A.89.89,0,0,1,12,27.64Z"/><path class="cls-1" d="M22.87,53.05a.88.88,0,0,1-.44-.12l-10.91-6.3a.89.89,0,0,1-.44-.77V33.27a.91.91,0,0,1,.44-.78L22.43,26.2a.89.89,0,0,1,.89,0l10.91,6.29a.91.91,0,0,1,.44.78V45.86a.89.89,0,0,1-.44.77l-10.91,6.3A.89.89,0,0,1,22.87,53.05Zm-10-7.71,10,5.79,10-5.79V33.78L22.87,28l-10,5.78Z"/><path class="cls-1" d="M22.87,40.46a.88.88,0,0,1-.44-.12L11.52,34a.9.9,0,0,1,.9-1.55l10.45,6,10.46-6a.9.9,0,0,1,.9,1.55l-10.91,6.3A.89.89,0,0,1,22.87,40.46Z"/><path class="cls-1" d="M22.87,53.05a.89.89,0,0,1-.89-.89V39.56a.9.9,0,0,1,1.79,0v12.6A.89.89,0,0,1,22.87,53.05Z"/></svg>