<svg id="Layer_1" data-name="Layer 1" xmlns="http://www.w3.org/2000/svg" viewBox="0 0 59.6 55.27"><defs><style>.cls-1{fill:#3566e7;}.cls-2{fill:#22cefa;}</style></defs><title>icons_layout</title><path class="cls-1" d="M10.31,23.2a1,1,0,0,1-.3,0,1.08,1.08,0,0,1-.73-1.34A15.59,15.59,0,0,1,24.17,10.67a1.08,1.08,0,0,1,0,2.16,13.42,13.42,0,0,0-12.82,9.6A1.08,1.08,0,0,1,10.31,23.2Z"/><path class="cls-1" d="M10.35,49.76a1.08,1.08,0,0,1-.69-.26,26,26,0,1,1,33.52-.08,1.08,1.08,0,0,1-1.39-1.65A23.85,23.85,0,1,0,10.3,47.2L15.38,42a1.08,1.08,0,0,1,1.54,1.51l-5.8,5.92A1.06,1.06,0,0,1,10.35,49.76Z"/><path class="cls-2" d="M37.37,45.09a1.09,1.09,0,0,1-.88-.45l-4.63-6.53A1.09,1.09,0,0,1,32,36.66a8.78,8.78,0,1,0-11.35,0,1.08,1.08,0,1,1-1.39,1.65,10.93,10.93,0,1,1,14.87-.68l4.08,5.76a1.08,1.08,0,0,1-.26,1.5A1,1,0,0,1,37.37,45.09Z"/></svg>