<svg id="Layer_1" data-name="Layer 1" xmlns="http://www.w3.org/2000/svg" xmlns:xlink="http://www.w3.org/1999/xlink" viewBox="0 0 59.6 55.27"><defs><style>.cls-1{filter:url(#luminosity-noclip);}.cls-2{fill:#3566e7;}.cls-3{fill:#22cefa;}.cls-4{fill:#fff;}.cls-5{mask:url(#mask);}.cls-6,.cls-8{fill:none;stroke-linecap:round;stroke-linejoin:round;}.cls-6{stroke:#3566e7;stroke-width:1.97px;}.cls-7{mask:url(#mask-2);}.cls-8{stroke:#22cefa;stroke-width:1.97px;}.cls-9{filter:url(#luminosity-noclip-2);}</style><filter id="luminosity-noclip" x="0.14" y="17.22" width="54.97" height="34.75" filterUnits="userSpaceOnUse" color-interpolation-filters="sRGB"><feFlood flood-color="#fff" result="bg"/><feBlend in="SourceGraphic" in2="bg"/></filter><mask id="mask" x="0.14" y="17.22" width="54.97" height="34.75" maskUnits="userSpaceOnUse"><polygon class="cls-1" points="10.43 19.77 13.89 18.16 14.12 20.1 11.66 21.61 10.43 19.77"/></mask><filter id="luminosity-noclip-2" x="0.14" y="17.22" width="54.97" height="34.75" filterUnits="userSpaceOnUse" color-interpolation-filters="sRGB"><feFlood flood-color="#fff" result="bg"/><feBlend in="SourceGraphic" in2="bg"/></filter><mask id="mask-2" x="0.14" y="17.22" width="54.97" height="34.75" maskUnits="userSpaceOnUse"><g class="cls-9"><polygon points="41.8 17.5 44.96 19.4 44.96 20.82 41.05 20.69 41.8 17.5"/><path d="M10.39,32.19c0,.21-1.39,1.56-.81,2.17.38.4,1.09.8,1.49,1.22s.19,1.31.3,1.56c.4.9,2.32-3.22,2.32-3.22L12.4,31.65Z"/></g></mask></defs><title>icons_layout</title><path class="cls-2" d="M29.08,9.77V51.6C38.53,46.9,45,39,45,31.63V19.39Z"/><path class="cls-3" d="M10.4,19.79V32c0,7.31,6.45,15.26,15.91,20V12.23Z"/><path class="cls-4" d="M30.37,30.74a1,1,0,0,1,0-2,1,1,0,0,1,1,1,1,1,0,0,1,0,.29,1,1,0,0,1-.95.7m6.9-8.66c.81,4.74-2.88,5.89-2.88,5.89a.46.46,0,0,0,.07-.11,3.09,3.09,0,0,0-.17-3.28c-.86,1.7-1.49,2.07-2.44,2.27l-5.54-2.4V21.22L15.88,38.83h3.51l6.57-3,5.1.54c1.73.16,4.6-.8,6.75-3.58.1-.14.19-.27.26-.39a3.42,3.42,0,0,0,.33-.59h0v0s.29-.55.37-.74c1-2.39,1.24-6.4-1.51-8.94"/><g class="cls-5"><path class="cls-6" d="M44.36,35c7.11,5.67,11,11.11,9.42,14-2.37,4.3-16,1.33-30.44-6.63S-.89,24.47,1.48,20.17c1.2-2.16,5.23-2.48,10.77-1.26"/></g><g class="cls-7"><path class="cls-8" d="M10.9,35c-7.11,5.67-11,11.11-9.42,14,2.38,4.3,16,1.33,30.44-6.63S56.15,24.47,53.78,20.17c-1.18-2.13-5.14-2.47-10.6-1.3"/></g></svg>