<svg id="Layer_1" data-name="Layer 1" xmlns="http://www.w3.org/2000/svg" viewBox="0 0 59.6 55.27"><defs><style>.cls-1{fill:#3566e7;}.cls-2{fill:#22cefa;}</style></defs><title>icons_layout</title><path class="cls-1" d="M34.76,41.91a1.24,1.24,0,0,1-.49-.11L23.89,37a1.17,1.17,0,0,1,1-2.12l10.38,4.84a1.17,1.17,0,0,1-.5,2.23Z"/><path class="cls-2" d="M24.39,37.07a1.17,1.17,0,0,1-1.17-1.17V21.27a1.17,1.17,0,0,1,2.34,0V35.9A1.18,1.18,0,0,1,24.39,37.07Z"/><path class="cls-1" d="M44.2,21.82a1.21,1.21,0,0,1-1.1-.7,21,21,0,0,0-31.74-8,1.21,1.21,0,1,1-1.45-1.93,23.46,23.46,0,0,1,35.38,8.88,1.2,1.2,0,0,1-.59,1.6A1.1,1.1,0,0,1,44.2,21.82Z"/><circle class="cls-1" cx="5.11" cy="18.13" r="1.75"/><circle class="cls-1" cx="2.28" cy="24.95" r="1.75"/><circle class="cls-1" cx="1.88" cy="32.63" r="1.75"/><circle class="cls-1" cx="4.05" cy="39.87" r="1.75"/><circle class="cls-1" cx="8.37" cy="45.78" r="1.75"/><circle class="cls-1" cx="14.27" cy="49.76" r="1.75"/><path class="cls-1" d="M44.74,22a1.41,1.41,0,0,1-.35,0L34.84,19a1.21,1.21,0,0,1,.7-2.32l7.89,2.38-.55-8.8A1.21,1.21,0,0,1,44,9a1.22,1.22,0,0,1,1.28,1.13L46,20.68a1.24,1.24,0,0,1-.46,1A1.2,1.2,0,0,1,44.74,22Z"/></svg>