<svg id="Layer_1" data-name="Layer 1" xmlns="http://www.w3.org/2000/svg" viewBox="0 0 59.6 55.27"><defs><style>.cls-1{fill:#3566e7;}.cls-2{fill:#22cefa;}</style></defs><title>icons_layout</title><path class="cls-1" d="M18.17,52A17.8,17.8,0,0,1,7.46,48.45a1.07,1.07,0,0,1-.38-1.23,1.1,1.1,0,0,1,1.06-.77H8.3a1.13,1.13,0,0,1,.67.23,15.6,15.6,0,0,0,18.91-.39A15.68,15.68,0,0,0,33.56,37a1.12,1.12,0,0,1,1.09-.93h0a1.12,1.12,0,0,1,.94.4,1.15,1.15,0,0,1,.24,1A18.06,18.06,0,0,1,18.17,52ZM1.88,39.53A1.13,1.13,0,0,1,.79,38.7a17.16,17.16,0,0,1-.56-3.38Q.17,34.66.17,34V20.85c0-.44,0-.87.06-1.3a17.49,17.49,0,0,1,1-4.7,18.09,18.09,0,0,1,3-5.28A17.94,17.94,0,0,1,28.88,6.4a1.08,1.08,0,0,1,.39,1.23,1.1,1.1,0,0,1-1.07.78H28a1.15,1.15,0,0,1-.67-.23,15.45,15.45,0,0,0-9.2-3A15.76,15.76,0,0,0,3.93,14.32a15.23,15.23,0,0,0-1.37,5.1,13.56,13.56,0,0,0-.07,1.43V34a13.75,13.75,0,0,0,.07,1.44A16.14,16.14,0,0,0,3,38.07a1.17,1.17,0,0,1-.19,1,1.06,1.06,0,0,1-.87.43ZM35,29.15A1.11,1.11,0,0,1,33.85,28V20.85a13.88,13.88,0,0,0-.07-1.44,15,15,0,0,0-.47-2.62,1.15,1.15,0,0,1,.2-1,1,1,0,0,1,.86-.43,1.16,1.16,0,0,1,1.18.83,17.85,17.85,0,0,1,.57,3.37c0,.45.05.88.05,1.32V28a1.11,1.11,0,0,1-1.11,1.11Z"/><path class="cls-1" d="M18.17,45.21a11.28,11.28,0,0,1-8.9-4.33,11.39,11.39,0,0,1-2.42-7V31.14a1.16,1.16,0,0,1,2.32,0v2.75a9,9,0,0,0,5,8.06,9,9,0,0,0,8,0,9.05,9.05,0,0,0,4.28-4.52,8.93,8.93,0,0,0,.72-3.54V31.14A1.15,1.15,0,0,1,28.33,30h0a1.18,1.18,0,0,1,.82.33,1.15,1.15,0,0,1,.34.82v2.75a11.39,11.39,0,0,1-2.42,7A11.26,11.26,0,0,1,18.17,45.21ZM28.33,24.87a1.16,1.16,0,0,1-1.16-1.16V21a8.86,8.86,0,0,0-.72-3.54A9,9,0,0,0,18.17,12a8.88,8.88,0,0,0-3.6.76,1.28,1.28,0,0,1-.48.11A1.13,1.13,0,0,1,13,11.89a1.08,1.08,0,0,1,.64-1.28A11.3,11.3,0,0,1,27.07,14a10.9,10.9,0,0,1,2,3.91A11,11,0,0,1,29.49,21v2.74A1.16,1.16,0,0,1,28.33,24.87ZM8,24.87a1.16,1.16,0,0,1-1.16-1.16V21A11,11,0,0,1,7,19.35a1.17,1.17,0,0,1,2-.53,1.11,1.11,0,0,1,.27.89A8.76,8.76,0,0,0,9.17,21v2.75A1.16,1.16,0,0,1,8,24.87Z"/><path class="cls-2" d="M18.17,38.53a4.71,4.71,0,0,1-4.66-3.89,4,4,0,0,1-.09-.85V30.27a1.17,1.17,0,0,1,2.33,0v3.52a2.35,2.35,0,0,0,.44,1.39,2.41,2.41,0,0,0,4,0,2.33,2.33,0,0,0,.44-1.37V30.27a1.16,1.16,0,0,1,2.32,0v3.52a4.41,4.41,0,0,1-.08.83A4.72,4.72,0,0,1,18.17,38.53Zm3.59-12.79a1.16,1.16,0,0,1-1.16-1.16v-.41a1.16,1.16,0,0,1,2.32,0v.41A1.16,1.16,0,0,1,21.76,25.74Zm-7.18,0a1.16,1.16,0,0,1-1.16-1.16V21.07a4.25,4.25,0,0,1,.08-.83,4.74,4.74,0,0,1,7.83-2.71,1,1,0,0,1,.27,1.14,1.09,1.09,0,0,1-1,.71h-.35a1,1,0,0,1-.58-.24,2.38,2.38,0,0,0-1.47-.5,2.41,2.41,0,0,0-2,1.05,2.35,2.35,0,0,0-.43,1.38v3.51A1.16,1.16,0,0,1,14.58,25.74Z"/></svg>